<svg aria-hidden="true" style="position: absolute; width: 0; height: 0; overflow: hidden;" version="1.1" xmlns="http://www.w3.org/2000/svg" xmlns:xlink="http://www.w3.org/1999/xlink">
<defs>
<symbol id="icon-remove-user" viewBox="0 0 20 20">
<title>remove-user</title>
<path d="M15.989 19.129c0-2.246-2.187-3.389-4.317-4.307-2.123-0.914-2.801-1.684-2.801-3.334 0-0.989 0.648-0.667 0.932-2.481 0.12-0.752 0.692-0.012 0.802-1.729 0-0.684-0.313-0.854-0.313-0.854s0.159-1.013 0.221-1.793c0.064-0.817-0.398-2.56-2.301-3.095-0.332-0.341-0.557-0.882 0.467-1.424-2.24-0.104-2.761 1.068-3.954 1.93-1.015 0.756-1.289 1.953-1.24 2.59 0.065 0.78 0.223 1.793 0.223 1.793s-0.314 0.17-0.314 0.854c0.11 1.718 0.684 0.977 0.803 1.729 0.284 1.814 0.933 1.492 0.933 2.481 0 1.65-0.212 2.21-2.336 3.124-2.131 0.917-2.794 2.387-2.783 4.516 0.003 0.637-0.011 0.871-0.011 0.871h16c0 0-0.011-0.234-0.011-0.871zM16 10.039l-2.299-2.398-1.061 1.061 2.399 2.298-2.398 2.298 1.061 1.061 2.298-2.398 2.298 2.398 1.061-1.061-2.398-2.298 2.397-2.298-1.061-1.061-2.297 2.398z"></path>
</symbol>
<symbol id="icon-arrow-up" viewBox="0 0 20 20">
<title>arrow-up</title>
<path d="M10 2.5l6.5 6.5h-3.5v8h-6v-8h-3.5l6.5-6.5z"></path>
</symbol>
<symbol id="icon-chevron-thin-right" viewBox="0 0 20 20">
<title>chevron-thin-right</title>
<path d="M13.25 10l-7.141-7.42c-0.268-0.27-0.268-0.707 0-0.979 0.268-0.27 0.701-0.27 0.969 0l7.83 7.908c0.268 0.271 0.268 0.709 0 0.979l-7.83 7.908c-0.268 0.271-0.701 0.27-0.969 0s-0.268-0.707 0-0.979l7.141-7.417z"></path>
</symbol>
<symbol id="icon-trash" viewBox="0 0 20 20">
<title>trash</title>
<path d="M3.389 7.113l1.101 10.908c0.061 0.461 2.287 1.977 5.51 1.979 3.225-0.002 5.451-1.518 5.511-1.979l1.102-10.908c-1.684 0.942-4.201 1.387-6.613 1.387-2.41 0-4.928-0.445-6.611-1.387zM13.168 1.51l-0.859-0.951c-0.332-0.473-0.692-0.559-1.393-0.559h-1.831c-0.7 0-1.061 0.086-1.392 0.559l-0.859 0.951c-2.57 0.449-4.434 1.64-4.434 2.519v0.17c0 1.547 3.403 2.801 7.6 2.801 4.198 0 7.601-1.254 7.601-2.801v-0.17c0-0.879-1.863-2.070-4.433-2.519zM12.070 4.34l-1.070-1.34h-2l-1.068 1.34h-1.7c0 0 1.862-2.221 2.111-2.522 0.19-0.23 0.384-0.318 0.636-0.318h2.043c0.253 0 0.447 0.088 0.637 0.318 0.248 0.301 2.111 2.522 2.111 2.522h-1.7z"></path>
</symbol>
<symbol id="icon-add-user" viewBox="0 0 20 20">
<title>add-user</title>
<path d="M15.989 19.129c0.011-2.129-2.186-3.389-4.317-4.307-2.123-0.914-2.801-1.684-2.801-3.334 0-0.989 0.648-0.667 0.932-2.481 0.12-0.752 0.692-0.012 0.802-1.729 0-0.684-0.313-0.854-0.313-0.854s0.159-1.013 0.221-1.793c0.064-0.817-0.398-2.56-2.301-3.095-0.332-0.341-0.557-0.882 0.467-1.424-2.24-0.104-2.761 1.068-3.954 1.93-1.015 0.756-1.289 1.953-1.24 2.59 0.065 0.78 0.223 1.793 0.223 1.793s-0.314 0.17-0.314 0.854c0.11 1.718 0.684 0.977 0.803 1.729 0.284 1.814 0.933 1.492 0.933 2.481 0 1.65-0.212 2.21-2.336 3.124-2.131 0.917-2.794 2.387-2.783 4.516 0.003 0.637-0.011 0.871-0.011 0.871h16c0 0-0.014-0.234-0.011-0.871zM17 10v-3h-2v3h-3v2h3v3h2v-3h3v-2h-3z"></path>
</symbol>
<symbol id="icon-bell" viewBox="0 0 20 20">
<title>bell</title>
<path d="M14.65 8.512c-2.28-4.907-3.466-6.771-7.191-6.693-1.327 0.027-1.009-0.962-2.021-0.587-1.010 0.375-0.143 0.924-1.177 1.773-2.902 2.383-2.635 4.587-1.289 9.84 0.567 2.213-1.367 2.321-0.602 4.465 0.559 1.564 4.679 2.219 9.025 0.607s7.086-4.814 6.527-6.378c-0.765-2.145-2.311-0.961-3.272-3.027zM10.924 16.595c-3.882 1.44-7.072 0.594-7.207 0.217-0.232-0.65 1.253-2.816 5.691-4.463s6.915-1.036 7.174-0.311c0.153 0.429-1.775 3.116-5.658 4.557zM9.676 13.101c-2.029 0.753-3.439 1.614-4.353 2.389 0.643 0.584 1.847 0.726 3.046 0.281 1.527-0.565 2.466-1.866 2.095-2.904-0.005-0.013-0.011-0.023-0.016-0.036-0.251 0.082-0.508 0.171-0.772 0.27z"></path>
</symbol>
<symbol id="icon-calendar" viewBox="0 0 20 20">
<title>calendar</title>
<path d="M17 3h-1v2h-3v-2h-6v2h-3v-2h-1c-1.101 0-2 0.9-2 2v12c0 1.1 0.899 2 2 2h14c1.1 0 2-0.9 2-2v-12c0-1.1-0.9-2-2-2zM17 17h-14v-8h14v8zM6.5 1h-2v3.5h2v-3.5zM15.5 1h-2v3.5h2v-3.5z"></path>
</symbol>
<symbol id="icon-chat" viewBox="0 0 20 20">
<title>chat</title>
<path d="M5.8 12.2v-6.2h-3.8c-1.1 0-2 0.9-2 2v6c0 1.1 0.9 2 2 2h1v3l3-3h5c1.1 0 2-0.9 2-2v-1.82c-0.064 0.014-0.132 0.021-0.2 0.021l-7-0.001zM18 1h-9c-1.1 0-2 0.9-2 2v8h7l3 3v-3h1c1.1 0 2-0.899 2-2v-6c0-1.1-0.9-2-2-2z"></path>
</symbol>
<symbol id="icon-database" viewBox="0 0 20 20">
<title>database</title>
<path d="M16.726 12.641c-0.843 1.363-3.535 2.361-6.726 2.361s-5.883-0.998-6.727-2.361c-0.178-0.29-0.273-0.135-0.273 0.007 0 0.144 0 2.002 0 2.002 0 1.94 3.134 3.95 7 3.95s7-2.010 7-3.949c0 0 0-1.858 0-2.002s-0.096-0.298-0.274-0.008zM16.737 7.525c-0.83 1.205-3.532 2.090-6.737 2.090s-5.908-0.885-6.738-2.090c-0.171-0.248-0.262-0.113-0.262-0.002 0 0.113 0 2.357 0 2.357 0 1.762 3.134 3.189 7 3.189s7-1.428 7-3.189c0 0 0-2.244 0-2.357 0-0.111-0.092-0.246-0.263 0.002zM10 1c-3.866 0-7 1.18-7 2.633v1.26c0 1.541 3.134 2.791 7 2.791s7-1.25 7-2.791v-1.26c0-1.453-3.134-2.633-7-2.633z"></path>
</symbol>
<symbol id="icon-emoji-happy" viewBox="0 0 20 20">
<title>emoji-happy</title>
<path d="M10 0.4c-5.302 0-9.6 4.298-9.6 9.6s4.298 9.6 9.6 9.6c5.301 0 9.6-4.298 9.6-9.601 0-5.301-4.299-9.599-9.6-9.599zM10 17.599c-4.197 0-7.6-3.402-7.6-7.6s3.402-7.599 7.6-7.599c4.197 0 7.601 3.402 7.601 7.6s-3.404 7.599-7.601 7.599zM7.501 9.75c0.828 0 1.499-0.783 1.499-1.75s-0.672-1.75-1.5-1.75-1.5 0.783-1.5 1.75 0.672 1.75 1.501 1.75zM12.5 9.75c0.829 0 1.5-0.783 1.5-1.75s-0.672-1.75-1.5-1.75-1.5 0.784-1.5 1.75 0.672 1.75 1.5 1.75zM14.341 11.336c-0.363-0.186-0.815-0.043-1.008 0.32-0.034 0.066-0.869 1.593-3.332 1.593-2.451 0-3.291-1.513-3.333-1.592-0.188-0.365-0.632-0.514-1.004-0.329-0.37 0.186-0.52 0.636-0.335 1.007 0.050 0.099 1.248 2.414 4.672 2.414 3.425 0 4.621-2.316 4.67-2.415 0.184-0.367 0.036-0.81-0.33-0.998z"></path>
</symbol>
<symbol id="icon-emoji-sad" viewBox="0 0 20 20">
<title>emoji-sad</title>
<path d="M10.001 0.4c-5.303 0-9.601 4.298-9.601 9.6 0 5.303 4.298 9.601 9.601 9.601 5.301 0 9.6-4.298 9.6-9.601s-4.3-9.6-9.6-9.6zM10 17.599c-4.197 0-7.6-3.402-7.6-7.6 0-4.197 3.402-7.6 7.6-7.6 4.197 0 7.6 3.402 7.6 7.6s-3.403 7.6-7.6 7.6zM12.501 9.75c0.828 0 1.5-0.783 1.5-1.75s-0.672-1.75-1.5-1.75c-0.828 0-1.5 0.783-1.5 1.75s0.671 1.75 1.5 1.75zM7.501 9.75c0.828 0 1.5-0.783 1.5-1.75s-0.672-1.75-1.5-1.75c-0.828 0-1.5 0.783-1.5 1.75s0.671 1.75 1.5 1.75zM10.002 11.25c-3.424 0-4.622 2.315-4.672 2.414-0.186 0.371-0.035 0.821 0.335 1.007 0.108 0.053 0.222 0.079 0.335 0.079 0.275 0 0.54-0.151 0.672-0.414 0.008-0.017 0.822-1.586 3.33-1.586 2.463 0 3.298 1.527 3.328 1.585 0.184 0.37 0.635 0.523 1.006 0.336 0.371-0.184 0.521-0.636 0.336-1.006-0.049-0.099-1.246-2.415-4.67-2.415z"></path>
</symbol>
<symbol id="icon-erase" viewBox="0 0 20 20">
<title>erase</title>
<path d="M18 3h-9.554c-0.44 0-1.071 0.236-1.402 0.525l-6.796 5.948c-0.331 0.289-0.331 0.764 0 1.053l6.796 5.947c0.331 0.289 0.962 0.527 1.402 0.527h9.554c1.1 0 2-0.9 2-2v-10c0-1.1-0.9-2-2-2zM15.191 14l-2.557-2.557-2.556 2.557-1.443-1.443 2.556-2.557-2.556-2.557 1.443-1.443 2.557 2.555 2.555-2.555 1.444 1.443-2.556 2.557 2.557 2.555-1.444 1.445z"></path>
</symbol>
<symbol id="icon-heart-outlined" viewBox="0 0 20 20">
<title>heart-outlined</title>
<path d="M17.19 4.156c-1.672-1.535-4.383-1.535-6.055 0l-1.135 1.041-1.136-1.041c-1.672-1.535-4.382-1.535-6.054 0-1.881 1.726-1.881 4.519 0 6.245l7.19 6.599 7.19-6.599c1.88-1.726 1.88-4.52 0-6.245zM16.124 9.375l-6.124 5.715-6.125-5.715c-0.617-0.567-0.856-1.307-0.856-2.094s0.138-1.433 0.756-1.999c0.545-0.501 1.278-0.777 2.063-0.777s1.517 0.476 2.062 0.978l2.1 1.825 2.099-1.826c0.546-0.502 1.278-0.978 2.063-0.978s1.518 0.276 2.063 0.777c0.618 0.566 0.755 1.212 0.755 1.999s-0.238 1.528-0.856 2.095z"></path>
</symbol>
<symbol id="icon-heart" viewBox="0 0 20 20">
<title>heart</title>
<path d="M17.19 4.155c-1.672-1.534-4.383-1.534-6.055 0l-1.135 1.042-1.136-1.042c-1.672-1.534-4.382-1.534-6.054 0-1.881 1.727-1.881 4.52 0 6.246l7.19 6.599 7.19-6.599c1.88-1.726 1.88-4.52 0-6.246z"></path>
</symbol>
<symbol id="icon-home" viewBox="0 0 20 20">
<title>home</title>
<path d="M18.672 11h-1.672v6c0 0.445-0.194 1-1 1h-4v-6h-4v6h-4c-0.806 0-1-0.555-1-1v-6h-1.672c-0.598 0-0.47-0.324-0.060-0.748l8.024-8.032c0.195-0.202 0.451-0.302 0.708-0.312 0.257 0.010 0.513 0.109 0.708 0.312l8.023 8.031c0.411 0.425 0.539 0.749-0.059 0.749z"></path>
</symbol>
<symbol id="icon-lock-open" viewBox="0 0 20 20">
<title>lock-open</title>
<path d="M15.8 8h-1.8v-2.4c0-2.897-1.335-4.6-4-4.6s-4 1.703-4 4.6v0.4h2v-0.801c0-1.445 0.797-2.199 2-2.199s2 0.754 2 2.199v2.801h-8c-0.553 0-1 0.646-1 1.199v7.801c0 0.549 0.428 1.139 0.951 1.307l1.197 0.387c0.524 0.167 1.402 0.306 1.952 0.306h5.8c0.549 0 1.428-0.139 1.951-0.307l1.196-0.387c0.524-0.167 0.953-0.757 0.953-1.306v-7.801c0-0.553-0.648-1.199-1.2-1.199z"></path>
</symbol>
<symbol id="icon-lock" viewBox="0 0 20 20">
<title>lock</title>
<path d="M15.8 8h-1.8v-2.4c0-2.897-1.335-4.6-4-4.6s-4 1.703-4 4.6v2.4h-2c-0.553 0-1 0.646-1 1.199v7.801c0 0.549 0.428 1.139 0.951 1.307l1.197 0.387c0.524 0.167 1.402 0.306 1.952 0.306h5.8c0.549 0 1.428-0.139 1.951-0.307l1.196-0.387c0.524-0.167 0.953-0.757 0.953-1.306v-7.801c0-0.553-0.648-1.199-1.2-1.199zM12 8h-4v-2.801c0-1.445 0.797-2.199 2-2.199s2 0.754 2 2.199v2.801z"></path>
</symbol>
<symbol id="icon-magnifying-glass" viewBox="0 0 20 20">
<title>magnifying-glass</title>
<path d="M17.545 15.467l-3.779-3.779c0.57-0.935 0.898-2.035 0.898-3.21 0-3.417-2.961-6.377-6.378-6.377s-6.186 2.769-6.186 6.186c0 3.416 2.961 6.377 6.377 6.377 1.137 0 2.2-0.309 3.115-0.844l3.799 3.801c0.372 0.371 0.975 0.371 1.346 0l0.943-0.943c0.371-0.371 0.236-0.84-0.135-1.211zM4.004 8.287c0-2.366 1.917-4.283 4.282-4.283s4.474 2.107 4.474 4.474c0 2.365-1.918 4.283-4.283 4.283s-4.473-2.109-4.473-4.474z"></path>
</symbol>
<symbol id="icon-pencil" viewBox="0 0 20 20">
<title>pencil</title>
<path d="M14.69 2.661c-1.894-1.379-3.242-1.349-3.754-1.266-0.144 0.023-0.265 0.106-0.35 0.223l-6.883 9.497c-0.277 0.382-0.437 0.836-0.462 1.307l-0.296 5.624c-0.021 0.405 0.382 0.698 0.76 0.553l5.256-2.010c0.443-0.17 0.828-0.465 1.106-0.849l6.88-9.494c0.089-0.123 0.125-0.273 0.1-0.423-0.084-0.526-0.487-1.802-2.357-3.162zM8.977 15.465l-2.043 0.789c-0.080 0.031-0.169 0.006-0.221-0.062-0.263-0.335-0.576-0.667-1.075-1.030-0.499-0.362-0.911-0.558-1.31-0.706-0.080-0.030-0.131-0.106-0.126-0.192l0.122-2.186 0.549-0.755c0 0 1.229-0.169 2.833 0.998 1.602 1.166 1.821 2.388 1.821 2.388l-0.55 0.756z"></path>
</symbol>
<symbol id="icon-pin" viewBox="0 0 20 20">
<title>pin</title>
<path d="M4.774 15.287l-2.105 3.25 0.224 1.063 1.060-0.227 2.104-3.248c-0.224-0.12-0.446-0.248-0.661-0.39-0.218-0.141-0.426-0.292-0.622-0.448zM13.686 14.152c0.014-0.029 0.023-0.061 0.036-0.092 0.053-0.117 0.1-0.234 0.138-0.357 0.006-0.022 0.009-0.044 0.016-0.064 0.039-0.136 0.072-0.27 0.098-0.408 0-0.007 0-0.012 0-0.021 0.195-1.169-0.145-2.473-0.923-3.651l1.11-1.714c1.279 0.163 2.385-0.159 2.917-0.982 0.923-1.423-0.2-3.792-2.505-5.293-2.307-1.502-4.923-1.565-5.844-0.144-0.534 0.824-0.378 1.967 0.293 3.073l-1.112 1.714c-1.389-0.233-2.716-0.016-3.703 0.64-0.006 0.002-0.013 0.004-0.017 0.008-0.115 0.078-0.227 0.164-0.332 0.254-0.017 0.014-0.037 0.027-0.051 0.041-0.098 0.084-0.186 0.178-0.271 0.272-0.020 0.024-0.048 0.045-0.067 0.070-0.106 0.121-0.204 0.249-0.29 0.385-1.384 2.133-0.203 5.361 2.633 7.209 2.838 1.848 6.26 1.614 7.641-0.519 0.087-0.135 0.167-0.276 0.233-0.421zM12.871 4.194c-0.887-0.577-1.32-1.487-0.965-2.036 0.354-0.547 1.361-0.522 2.246 0.055 0.889 0.577 1.318 1.489 0.965 2.036s-1.358 0.522-2.246-0.055z"></path>
</symbol>
<symbol id="icon-plus" viewBox="0 0 20 20">
<title>plus</title>
<path d="M16 10c0 0.553-0.048 1-0.601 1h-4.399v4.399c0 0.552-0.447 0.601-1 0.601s-1-0.049-1-0.601v-4.399h-4.399c-0.552 0-0.601-0.447-0.601-1s0.049-1 0.601-1h4.399v-4.399c0-0.553 0.447-0.601 1-0.601s1 0.048 1 0.601v4.399h4.399c0.553 0 0.601 0.447 0.601 1z"></path>
</symbol>
<symbol id="icon-star-outlined" viewBox="0 0 20 20">
<title>star-outlined</title>
<path d="M18.8 8.022h-6.413l-2.387-6.722-2.389 6.722h-6.412l5.232 3.947-1.871 6.929 5.44-4.154 5.438 4.154-1.869-6.929 5.231-3.947zM10 12.783l-3.014 2.5 1.243-3.562-2.851-2.3 3.522 0.101 1.1-4.040 1.099 4.040 3.521-0.101-2.851 2.3 1.243 3.562-3.012-2.5z"></path>
</symbol>
<symbol id="icon-star" viewBox="0 0 20 20">
<title>star</title>
<path d="M10 1.3l2.388 6.722h6.412l-5.232 3.948 1.871 6.928-5.439-4.154-5.438 4.154 1.87-6.928-5.233-3.948h6.412l2.389-6.722z"></path>
</symbol>
<symbol id="icon-thumbs-down" viewBox="0 0 20 20">
<title>thumbs-down</title>
<path d="M6.352 12.638c0.133 0.356-3.539 3.634-1.397 6.291 0.501 0.621 2.201-2.975 4.615-4.602 1.331-0.899 4.43-2.811 4.43-3.868v-6.842c0-1.271-4.914-2.617-8.648-2.617-1.369 0-3.352 8.576-3.352 9.939 0 1.367 4.221 1.343 4.352 1.699zM15 12.543c0.658 0 3-0.4 3-3.123v-4.848c0-2.721-2.342-3.021-3-3.021-0.657 0 1 0.572 1 2.26v6.373c0 1.768-1.657 2.359-1 2.359z"></path>
</symbol>
<symbol id="icon-thumbs-up" viewBox="0 0 20 20">
<title>thumbs-up</title>
<path d="M13.648 7.362c-0.133-0.355 3.539-3.634 1.398-6.291-0.501-0.621-2.201 2.975-4.615 4.603-1.332 0.898-4.431 2.81-4.431 3.867v6.842c0 1.271 4.914 2.617 8.648 2.617 1.369 0 3.352-8.576 3.352-9.938 0-1.368-4.221-1.344-4.352-1.7zM5 7.457c-0.658 0-3 0.4-3 3.123v4.848c0 2.721 2.342 3.021 3 3.021 0.657 0-1-0.572-1-2.26v-6.373c0-1.768 1.657-2.359 1-2.359z"></path>
</symbol>
<symbol id="icon-users" viewBox="0 0 20 20">
<title>users</title>
<path d="M15.989 19.129c0-2.246-2.187-3.389-4.317-4.307-2.123-0.914-2.801-1.684-2.801-3.334 0-0.989 0.648-0.667 0.932-2.481 0.12-0.752 0.692-0.012 0.802-1.729 0-0.684-0.313-0.854-0.313-0.854s0.159-1.013 0.221-1.793c0.064-0.817-0.398-2.56-2.301-3.095-0.332-0.341-0.557-0.882 0.467-1.424-2.24-0.104-2.761 1.068-3.954 1.93-1.015 0.756-1.289 1.953-1.24 2.59 0.065 0.78 0.223 1.793 0.223 1.793s-0.314 0.17-0.314 0.854c0.11 1.718 0.684 0.977 0.803 1.729 0.284 1.814 0.933 1.492 0.933 2.481 0 1.65-0.212 2.21-2.336 3.124-2.131 0.917-2.794 2.387-2.783 4.516 0.003 0.637-0.011 0.871-0.011 0.871h16c0 0-0.011-0.234-0.011-0.871zM18.528 13.365c-1.135-0.457-1.605-1.002-1.605-2.066 0-0.641 0.418-0.432 0.602-1.603 0.077-0.484 0.447-0.008 0.518-1.115 0-0.441-0.202-0.551-0.202-0.551s0.103-0.656 0.143-1.159c0.050-0.627-0.364-2.247-2.268-2.247s-2.318 1.62-2.269 2.247c0.042 0.502 0.144 1.159 0.144 1.159s-0.202 0.109-0.202 0.551c0.071 1.107 0.441 0.631 0.518 1.115 0.184 1.172 0.602 0.963 0.602 1.603 0 1.064-0.438 1.562-1.809 2.152-0.069 0.029-0.12 0.068-0.183 0.102 1.64 0.712 4.226 1.941 4.838 4.447h2.645c0 0 0-1.906 0-2.318 0-1-0.273-1.834-1.472-2.317z"></path>
</symbol>
<symbol id="icon-v-card" viewBox="0 0 20 20">
<title>v-card</title>
<path d="M19 3h-18c-0.553 0-1 0.447-1 1v12c0 0.552 0.447 1 1 1h18c0.553 0 1-0.448 1-1v-12c0-0.552-0.447-1-1-1zM13 7h4v1h-4v-1zM11 14.803c-0.129-0.102-0.293-0.201-0.529-0.303-1.18-0.508-2.961-1.26-2.961-2.176 0-0.551 0.359-0.371 0.518-1.379 0.066-0.418 0.385-0.007 0.445-0.961 0-0.38-0.174-0.475-0.174-0.475s0.088-0.562 0.123-0.996c0.036-0.453-0.221-1.8-1.277-2.097-0.186-0.188-0.311-0.111 0.258-0.412-1.244-0.059-1.534 0.592-2.196 1.071-0.564 0.42-0.717 1.085-0.689 1.439 0.037 0.433 0.125 0.996 0.125 0.996s-0.175 0.094-0.175 0.474c0.061 0.954 0.38 0.543 0.445 0.961 0.158 1.008 0.519 0.828 0.519 1.379 0 0.916-1.781 1.668-2.961 2.176-0.203 0.088-0.349 0.173-0.471 0.26v-9.76h9v9.803zM18 11h-5v-1h5v1z"></path>
</symbol>
</defs>
</svg>
